<?xml version="1.0" encoding="UTF-8" standalone="no"?>
<!-- Created with Inkscape (http://www.inkscape.org/) -->

<svg
   xmlns:dc="http://purl.org/dc/elements/1.1/"
   xmlns:cc="http://creativecommons.org/ns#"
   xmlns:rdf="http://www.w3.org/1999/02/22-rdf-syntax-ns#"
   xmlns:svg="http://www.w3.org/2000/svg"
   xmlns="http://www.w3.org/2000/svg"
   xmlns:sodipodi="http://sodipodi.sourceforge.net/DTD/sodipodi-0.dtd"
   xmlns:inkscape="http://www.inkscape.org/namespaces/inkscape"
   width="422.52789"
   height="174.02902"
   id="svg6277"
   version="1.1"
   inkscape:version="0.48.2 r9819"
   sodipodi:docname="nombre.svg"
   inkscape:export-filename="/tmp/vibracion.png"
   inkscape:export-xdpi="74.551292"
   inkscape:export-ydpi="74.551292">
  <defs
     id="defs6279" />
  <sodipodi:namedview
     id="base"
     pagecolor="#ffffff"
     bordercolor="#666666"
     borderopacity="1.0"
     inkscape:pageopacity="0"
     inkscape:pageshadow="2"
     inkscape:zoom="1.4"
     inkscape:cx="356.00983"
     inkscape:cy="226.84777"
     inkscape:document-units="px"
     inkscape:current-layer="layer1-5"
     showgrid="false"
     fit-margin-top="0"
     fit-margin-left="0"
     fit-margin-right="0"
     fit-margin-bottom="0"
     inkscape:window-width="1918"
     inkscape:window-height="528"
     inkscape:window-x="0"
     inkscape:window-y="18"
     inkscape:window-maximized="0" />
  <metadata
     id="metadata6282">
    <rdf:RDF>
      <cc:Work
         rdf:about="">
        <dc:format>image/svg+xml</dc:format>
        <dc:type
           rdf:resource="http://purl.org/dc/dcmitype/StillImage" />
        <dc:title></dc:title>
      </cc:Work>
    </rdf:RDF>
  </metadata>
  <g
     inkscape:label="Layer 1"
     inkscape:groupmode="layer"
     id="layer1"
     transform="translate(-126.48209,-405.27837)">
    <g
       id="g5667"
       transform="matrix(17.253865,0,0,-17.253865,-2375.7923,5331.2669)"
       style="fill:#00ff00">
      <g
         inkscape:label="logo"
         id="layer2"
         inkscape:groupmode="layer"
         style="fill:#00ff00" />
      <g
         transform="matrix(0.03083952,0,0,-0.03083952,144.15884,297.36519)"
         id="layer1-5"
         inkscape:label="Layer 1"
         style="fill:#00ff00">
        <path
           inkscape:connector-curvature="0"
           id="path3159"
           d="m 45.184015,710.47259 c -0.16987,-1.43004 -0.63492,-4.57487 -1.40355,-9.49153 -0.12801,-0.81888 -0.34788,-2.24261 -0.4886,-3.16384 -0.1407,-0.92125 -0.37098,-2.42872 -0.51168,-3.34996 -0.14072,-0.92124 -0.36057,-2.34496 -0.48859,-3.16385 -0.12801,-0.81887 -0.35134,-2.27052 -0.49629,-3.22588 -0.14494,-0.95536 -0.37174,-2.43492 -0.50398,-3.28791 -0.27753,-1.78997 -0.59642,-3.91697 -0.95801,-6.38973 -0.13968,-0.95536 -0.37142,-2.46284 -0.51493,-3.34995 -0.14352,-0.88712 -0.36685,-2.33877 -0.49629,-3.22588 -0.12945,-0.88712 -0.34375,-2.28293 -0.47626,-3.10181 -0.13249,-0.81888 -0.36854,-2.32636 -0.52455,-3.34996 -0.15602,-1.02359 -0.38838,-2.53107 -0.51634,-3.34995 -0.12797,-0.81887 -0.34699,-2.27052 -0.48669,-3.22588 -0.23735,-1.62304 -0.35338,-2.38393 -0.97444,-6.38972 -0.13224,-0.85299 -0.35904,-2.33256 -0.50398,-3.28791 -0.32474,-2.1405 -0.68602,-4.48982 -0.99211,-6.45177 -0.12777,-0.81888 -0.355,-2.32636 -0.50498,-3.34995 -0.53197,-3.63083 -0.71753,-4.85783 -0.97575,-6.45177 -0.14372,-0.88711 -0.36722,-2.33875 -0.49666,-3.22587 -0.12945,-0.88712 -0.35278,-2.33877 -0.49629,-3.22588 -0.14352,-0.88712 -0.36686,-2.33877 -0.49629,-3.22589 -0.12945,-0.88711 -0.35279,-2.33876 -0.49628,-3.22587 -0.14354,-0.88712 -0.37527,-2.3946 -0.51498,-3.34996 -0.37857,-2.58879 -1.07846,-7.13793 -1.46981,-9.55357 -0.2516,-1.55293 -0.50733,-3.26427 -1.00124,-6.69991 -0.12753,-0.88711 -0.23551,-5.38163 -0.23998,-9.98782 l -0.008,-8.37488 16.74102,0 c 15.69346,0 16.755,0.0272 16.96406,0.43425 0.12266,0.23885 0.29527,1.21591 0.38356,2.17127 0.0883,0.95535 0.26785,2.63033 0.39897,3.72217 0.13111,1.09184 0.35328,2.96223 0.49366,4.15642 0.14039,1.1942 0.36692,3.12042 0.5034,4.2805 0.13649,1.16008 0.35982,3.05839 0.49629,4.21846 0.13648,1.16007 0.35982,3.05838 0.4963,4.21846 0.13647,1.16007 0.35687,3.03047 0.48978,4.15642 0.13289,1.12595 0.36209,3.10801 0.50932,4.40457 0.62041,5.46372 0.73249,6.4292 0.97943,8.43692 0.14268,1.16007 0.36606,3.05838 0.49639,4.21846 0.13032,1.16007 0.35365,3.05838 0.49629,4.21845 0.14262,1.16008 0.36595,3.05839 0.49628,4.21847 0.13033,1.16007 0.35279,3.05838 0.49436,4.21846 0.14159,1.16007 0.36872,3.05838 0.50475,4.21845 0.13603,1.16008 0.36023,3.05839 0.49822,4.21846 0.13798,1.16008 0.3575,3.05838 0.48783,4.21846 0.13033,1.16008 0.35366,3.05839 0.49629,4.21846 0.14263,1.16008 0.36597,3.05839 0.49629,4.21846 0.13032,1.16007 0.35365,3.05838 0.49629,4.21846 0.14264,1.16008 0.36995,3.0863 0.50515,4.2805 0.13518,1.19419 0.35658,3.14834 0.49197,4.34252 0.13538,1.1942 0.34422,2.50627 0.4641,2.91571 0.2177,0.74363 0.21807,0.74378 0.35408,0.12407 0.0749,-0.3412 0.26368,-2.07201 0.41952,-3.84624 0.15583,-1.77424 0.3836,-4.23087 0.50611,-5.45919 0.12251,-1.22832 0.34343,-3.62911 0.49093,-5.33511 0.1475,-1.70599 0.37021,-4.27429 0.4949,-5.70733 0.12469,-1.43303 0.34748,-4.11299 0.49505,-5.95547 0.1476,-1.84247 0.37397,-4.6341 0.50309,-6.20361 0.45321,-5.50931 1.09069,-13.54892 1.48549,-18.73493 0.38718,-5.08552 0.71995,-9.28427 1.00298,-12.65537 0.62485,-7.44201 0.76768,-9.10465 1.00208,-11.6628 1.04719,-11.42947 1.27851,-13.8138 1.5648,-16.1294 l 0.27613,-2.2333 18.05253,-0.0636 18.052525,-0.0637 0,0.65542 c 0,0.36046 -0.11757,1.39411 -0.26129,2.29695 -0.25934,1.62935 -0.4619,3.03683 -0.9862,6.85259 -0.15003,1.09184 -0.37322,2.65516 -0.496,3.47403 -0.29067,1.939 -0.65307,4.47497 -0.99288,6.94805 -0.15002,1.09184 -0.3732,2.65515 -0.49599,3.47403 -0.23389,1.56026 -0.29675,1.99687 -1.47345,10.23596 -0.13159,0.92124 -0.36197,2.5683 -0.512,3.66014 -0.15003,1.09183 -0.37321,2.65515 -0.496,3.47402 -0.29699,1.98128 -0.65981,4.52249 -0.99193,6.94805 -0.1495,1.09184 -0.37021,2.65515 -0.49046,3.47403 -0.12024,0.81888 -0.34466,2.38219 -0.49869,3.47402 -0.34854,2.47048 -0.71091,5.00684 -0.99271,6.94805 -0.11885,0.81888 -0.34104,2.38219 -0.49375,3.47403 -0.15271,1.09184 -0.37604,2.65515 -0.4963,3.47402 -0.12024,0.81888 -0.34357,2.38219 -0.49628,3.47403 -0.15271,1.09184 -0.37604,2.65515 -0.49629,3.47402 -0.12026,0.81888 -0.34358,2.3822 -0.49629,3.47403 -0.15271,1.09183 -0.37604,2.65515 -0.49629,3.47402 -0.12025,0.81888 -0.33216,2.32636 -0.47093,3.34996 -0.45611,3.36469 -0.79595,5.80847 -1.01793,7.32027 -0.12026,0.81887 -0.34359,2.38218 -0.49629,3.47402 -0.15272,1.09184 -0.37604,2.65515 -0.4963,3.47402 -0.12025,0.81889 -0.34358,2.38219 -0.49628,3.47403 -0.15271,1.09184 -0.37604,2.65515 -0.4963,3.47403 -0.12025,0.81888 -0.34358,2.38218 -0.49628,3.47402 -0.15272,1.09184 -0.37605,2.65515 -0.49629,3.47403 -0.12025,0.81887 -0.34358,2.38218 -0.49629,3.47402 -0.15271,1.09184 -0.37604,2.65516 -0.49629,3.47403 -0.12025,0.81887 -0.34358,2.38218 -0.49629,3.47402 -0.152715,1.09184 -0.395335,2.68307 -0.539145,3.53607 l -0.2615,1.5509 -26.98493,0 -26.98496,0 -0.15475,-1.30276 z m 78.995325,-63.58706 0,-64.88984 20.84415,0 20.84415,0 0,64.88984 0,64.88982 -20.84415,0 -20.84415,0 z m 56.63865,-14.45444 0.0624,-79.34425 20.22379,0 20.22378,0 0.12408,18.80897 0.12407,18.80896 0.99258,-1.0266 c 3.59416,-3.71735 8.34863,-6.79521 12.77946,-8.27287 3.81506,-1.2723 5.48521,-1.50576 10.79428,-1.50887 6.99466,-0.005 10.86887,0.79541 15.78798,3.25792 5.77711,2.89203 9.67467,7.94753 11.35044,14.7226 0.65989,2.66798 0.77786,9.95045 0.77786,48.02222 0,41.59339 -0.0831,44.93118 -1.27199,51.11157 -1.07878,5.608 -3.5181,9.90408 -7.61903,13.4185 l -1.57076,1.34611 -17.6208,0 -17.6208,0 -0.95756,-0.68239 c -0.52664,-0.37532 -2.0439,-1.77114 -3.37164,-3.10182 -1.32775,-1.33067 -2.50379,-2.41941 -2.61342,-2.41941 -0.10965,0 -0.26405,0.30709 -0.34311,0.6824 -0.18943,0.89928 -0.31862,1.42631 -0.71466,2.9157 -0.18146,0.6824 -0.40179,1.54781 -0.48966,1.92313 l -0.15971,0.68239 -19.47501,0 -19.47501,0 0.0624,-79.34426 z m 49.76121,60.42651 c 1.50106,-0.99336 2.12211,-2.57292 2.53023,-6.4353 0.16075,-1.52144 0.25068,-15.46171 0.24569,-38.0902 -0.008,-36.13092 -0.0504,-38.07595 -0.89293,-41.02566 -0.61187,-2.14193 -2.1485,-3.46007 -4.25647,-3.65121 -4.6045,-0.41751 -5.91991,1.04577 -6.4996,7.23038 -0.34435,3.67373 -0.3447,70.8023 0,74.48127 0.41301,4.41307 0.96908,6.13942 2.30605,7.15917 1.24838,0.95218 1.89288,1.13359 3.79034,1.06687 1.43468,-0.0504 1.94722,-0.18613 2.77709,-0.73532 z m 57.13087,-45.41375 c 0.003,-35.38233 0.0707,-64.58276 0.153,-64.88983 l 0.14963,-0.55833 20.05612,0 c 11.03088,0 20.11555,0.0961 20.18818,0.21365 0.12398,0.2006 -0.0473,2.52361 -0.6153,8.34734 -0.13313,1.3648 -0.30395,3.5981 -0.37961,4.9629 l -0.13757,2.48145 0.50934,-0.62037 c 0.28015,-0.3412 0.51183,-0.69592 0.51487,-0.78826 0.003,-0.0923 0.55789,-1.06791 1.23304,-2.16793 2.84547,-4.63636 6.83934,-8.7822 10.5191,-10.91941 1.66182,-0.96521 3.86552,-2.00566 4.24801,-2.00566 0.1945,0 0.41468,-0.0988 0.48929,-0.21952 0.0747,-0.12076 0.44413,-0.2757 0.82114,-0.34436 0.37698,-0.0686 1.29958,-0.29507 2.05022,-0.50316 0.75063,-0.20812 2.09061,-0.41607 2.97773,-0.46215 l 1.61294,-0.0837 0,23.32559 0,23.32559 -1.36479,0.0546 c -9.05795,0.36219 -14.10809,1.87667 -17.64795,5.29239 -1.79629,1.73325 -3.19166,4.21791 -3.54698,6.31584 -0.87819,5.18506 -0.93523,7.37337 -1.05948,40.6337 l -0.12305,32.9412 -20.32563,0 -20.32565,0 0.003,-64.3315 z m 80.88493,63.92261 c -3.5818,-2.38708 -6.52087,-7.77512 -7.69544,-14.10757 -0.77029,-4.15285 -0.97327,-7.74723 -0.97796,-17.31787 -0.006,-12.46455 0.28782,-15.66126 1.90999,-20.77234 1.09186,-3.4402 2.74128,-5.60063 6.14987,-8.05507 2.00114,-1.44098 3.05531,-2.03886 7.56841,-4.29256 4.54646,-2.27035 4.75455,-2.36102 12.76826,-5.5625 3.41814,-1.36558 6.80436,-2.75185 7.52492,-3.08065 0.72056,-0.32879 1.35934,-0.59781 1.41948,-0.59781 0.19728,0 2.92451,-1.25677 5.83141,-2.68725 3.27337,-1.61083 5.49593,-3.02704 6.00941,-3.82917 0.95151,-1.48636 1.43493,-5.3194 1.43493,-11.37773 0,-6.70914 -0.49267,-10.92222 -1.52014,-12.99985 -0.64733,-1.30889 -0.91938,-1.6384 -1.95389,-2.36649 -0.77541,-0.54574 -1.12119,-0.61125 -3.22588,-0.61125 -5.40889,0 -5.69487,0.93595 -5.70252,18.66164 l -0.005,11.2173 -0.80647,0.144 c -0.44356,0.0792 -9.01385,0.11217 -19.0451,0.0733 l -18.23863,-0.0707 -0.0784,-6.6999 c -0.14673,-12.53577 1.01099,-20.7242 3.78865,-26.7968 1.5146,-3.31121 5.29518,-7.88832 8.57292,-10.37912 0.75064,-0.5704 1.42063,-1.1006 1.48887,-1.17819 0.44708,-0.50832 3.08975,-2.12553 6.07955,-3.72038 3.15387,-1.68239 8.47754,-3.41581 12.77945,-4.16108 4.7078,-0.81561 5.90115,-0.89851 13.02759,-0.90507 9.53345,-0.009 14.09425,0.50656 20.22379,2.28515 1.16008,0.3366 2.36212,0.66986 2.67123,0.74053 0.30909,0.0707 0.62277,0.22688 0.69704,0.34706 0.0743,0.12017 0.30443,0.21851 0.51145,0.21851 0.69701,0 5.37528,2.48525 7.37183,3.91617 1.8805,1.34773 5.35082,4.56209 6.58832,6.10235 0.31512,0.39219 1.09209,1.51195 1.72656,2.4883 0.99693,1.53403 1.50791,2.53531 2.54513,4.98738 0.37698,0.89118 1.14635,4.17752 1.4233,6.07954 1.47039,10.09786 1.7729,21.72035 1.77459,68.17775 l 0.003,36.5393 -19.7275,0 -19.72751,0 0,-3.58345 c 0,-1.9709 -0.0973,-3.64361 -0.21633,-3.71717 -0.11898,-0.0735 -0.63839,0.50613 -1.15422,1.28813 -1.27065,1.92624 -3.93761,5.11203 -4.69499,5.60828 -0.5557,0.36412 -2.39733,0.40421 -18.5609,0.40421 -16.25189,0 -18.00186,-0.0386 -18.55755,-0.40889 z m 38.84802,-18.23109 c 1.86364,-0.87602 2.38394,-1.97404 2.8283,-5.96862 0.36668,-3.29626 0.36762,-34.69797 0,-34.69797 -0.46011,0 -4.73978,3.59082 -6.70016,5.62172 -2.27548,2.35732 -3.38702,3.96738 -4.08496,5.917 -1.61536,4.51244 -1.88827,19.65276 -0.46519,25.80704 0.33829,1.46309 1.69994,2.97973 3.15772,3.51719 1.35022,0.49782 3.99646,0.39909 5.26324,-0.19636 z m 73.36879,17.26439 c -3.35248,-2.24626 -5.30898,-4.02386 -7.5495,-6.85929 -4.12599,-5.22151 -6.49105,-11.40339 -7.86193,-20.5499 -0.86424,-5.76599 -0.89064,-6.84771 -0.89064,-36.47727 0,-31.81013 -0.0287,-31.00848 1.37233,-38.33835 1.6801,-8.78983 5.85132,-14.70364 14.38487,-20.39441 6.27019,-4.18141 11.52662,-6.12584 20.47193,-7.57292 2.68941,-0.43508 14.17043,-0.43206 16.9979,0.005 3.96613,0.61232 6.86349,1.27916 9.97336,2.29541 1.97888,0.6467 2.84525,0.99449 5.41162,2.17253 1.75316,0.80476 5.13391,2.8596 6.93491,4.21506 7.42028,5.58467 11.42538,12.17834 13.14285,21.63722 0.16106,0.88712 0.39567,2.17127 0.52129,2.85367 0.61119,3.31943 1.23515,11.36358 1.23666,15.94329 l 0,3.03977 -19.10714,0 -19.10714,0 0,-8.4234 c 0,-16.53171 -0.72121,-19.4869 -4.9629,-20.33529 -3.00403,-0.60086 -5.49208,0.90731 -6.13949,3.72157 -0.16946,0.73662 -0.41894,2.67929 -0.5544,4.31705 -0.32902,3.97775 -0.33825,69.0167 -0.0102,71.84437 0.81818,7.05268 2.93351,10.17697 6.88035,10.16197 2.31876,-0.009 4.03972,-1.02173 5.02837,-2.95969 1.36152,-2.66879 1.73179,-6.8581 1.73816,-19.6668 l 0.005,-10.59695 0.80647,-0.14402 c 0.44356,-0.0792 8.56719,-0.11221 18.05252,-0.0733 l 17.24605,0.0708 0.0833,2.72959 c 0.1708,5.59916 -0.68741,19.47365 -1.43509,23.20152 -0.89265,4.45053 -2.95863,9.15617 -6.04655,13.77204 -3.06845,4.58678 -5.79156,7.38663 -10.07075,10.3546 l -1.88614,1.30819 -26.30334,0.0646 -26.30334,0.0646 -2.06064,-1.3807 z m 86.55391,-63.51423 0,-64.88984 20.81521,0 20.81519,0 0.14963,0.55833 c 0.0823,0.30707 0.15115,29.5075 0.15301,64.88983 l 0.004,64.3315 -20.96822,0 -20.96823,0 0,-64.88982 z m 72.70638,64.70907 c -1.07777,-0.41946 -5.0184,-3.33167 -6.46311,-4.77638 -4.343,-4.34301 -7.89943,-11.53943 -9.20021,-18.61661 -1.28015,-6.96493 -1.44445,-11.36168 -1.44653,-38.71057 -0.003,-29.89903 0.13077,-32.34642 2.24953,-41.37813 0.48458,-2.0656 1.71855,-5.58094 2.68572,-7.65109 4.38958,-9.39555 13.79776,-16.5138 25.32627,-19.1619 5.19461,-1.1932 7.51481,-1.41345 14.88868,-1.41336 6.73375,8e-5 8.11636,0.0969 12.77944,0.89492 3.70041,0.63328 7.59539,1.76306 10.7943,3.13098 3.24399,1.3872 7.96924,3.98339 8.68507,4.77179 0.0683,0.0752 0.75758,0.61796 1.53189,1.20619 4.50727,3.4241 9.38262,10.44453 11.31905,16.29935 2.15689,6.52138 2.53191,12.35026 2.5304,39.33093 -0.003,34.99808 -0.67019,41.98603 -4.81703,50.37337 -0.95454,1.93066 -3.32013,5.74655 -3.84578,6.20362 -0.0785,0.0683 -0.57014,0.65595 -1.09253,1.30601 -2.07494,2.58202 -4.36092,4.62258 -7.73524,6.90487 l -1.98515,1.34269 -27.91628,0.0441 c -15.35395,0.0243 -28.08378,-0.0211 -28.28849,-0.10078 z m 31.58477,-18.2996 c 1.92618,-0.80481 2.68007,-2.46366 3.1606,-6.95447 0.33204,-3.10326 0.3207,-71.2068 -0.0124,-75.14513 -0.54854,-6.48337 -1.8208,-7.96429 -6.47927,-7.54186 -2.66508,0.24164 -3.67332,1.49861 -4.39311,5.47687 -0.37038,2.04709 -0.4106,5.91944 -0.40907,39.36805 0.003,33.52611 0.0414,37.31264 0.41436,39.33093 0.22695,1.22831 0.5223,2.51877 0.65629,2.86766 0.37103,0.96608 1.50862,2.20511 2.37231,2.5839 1.04206,0.45701 3.61187,0.46471 4.69043,0.0141 z m 57.80888,-46.34745 0.0625,-64.82778 20.41715,-0.0635 c 17.89966,-0.0557 20.43462,-0.0179 20.55904,0.30631 0.078,0.20338 0.01,2.72602 -0.15152,5.60584 -0.16139,2.87984 -0.23927,5.29022 -0.17306,5.35643 0.0662,0.0662 0.48902,-0.41548 0.9396,-1.07038 1.24405,-1.80815 1.64053,-2.26705 3.9523,-4.57434 4.03659,-4.02878 7.70668,-5.96841 14.13528,-7.47043 1.87206,-0.43738 9.98111,-0.42648 12.40724,0.0166 2.12918,0.38894 5.8006,1.55411 7.29652,2.31564 2.8275,1.43939 6.22468,4.216 8.28788,6.7739 1.33616,1.65657 3.19144,5.73128 3.72845,8.18878 0.26842,1.22831 0.63684,2.90328 0.81871,3.72217 0.26871,1.20984 0.34432,11.70803 0.40346,56.01865 l 0.0728,54.52979 -20.09781,0 -20.09778,0 -0.0853,-51.55205 c -0.0903,-54.55977 -0.054,-52.81489 -1.13769,-54.83965 -0.71692,-1.33955 -3.17298,-2.1458 -5.41414,-1.77731 -0.65729,0.10807 -1.33433,0.20316 -1.50453,0.2113 -0.4771,0.0228 -2.31718,1.78014 -2.60369,2.48663 -1.02815,2.53525 -1.00944,1.60902 -1.10665,54.78754 l -0.0926,50.68354 -20.33933,0 -20.33932,0 0.0625,-64.82779 z M 124.34619,574.13919 c -0.0918,-0.0918 -0.16685,-4.89399 -0.16685,-10.67164 l 0,-10.50479 20.8468,0 20.84684,0 -0.0648,10.60819 -0.0647,10.60819 -20.61526,0.0635 c -11.3384,0.0349 -20.69035,-0.0117 -20.78212,-0.1034 z m 443.18496,-0.003 c -0.091,-0.091 -0.16543,-4.89258 -0.16543,-10.67023 l 0,-10.50477 20.81759,0 c 18.75404,0 20.83254,0.0389 20.96822,0.39251 0.0829,0.21588 0.15063,4.88349 0.15063,10.37245 0,7.4313 -0.076,10.05596 -0.29777,10.2777 -0.22681,0.2268 -5.18531,0.29778 -20.80279,0.29778 -11.27778,0 -20.57949,-0.0744 -20.67045,-0.16544 z m 82.96302,-0.89077 c 0,-0.17204 0.50249,-1.06186 1.11665,-1.97736 0.61416,-0.91549 1.11665,-1.72436 1.11665,-1.79747 0,-0.0731 1.37721,-2.22618 3.06048,-4.78457 1.68326,-2.5584 4.47489,-6.80073 6.20361,-9.42737 1.72873,-2.62663 3.14563,-4.85993 3.14866,-4.96288 0.003,-0.10297 0.2239,-0.46634 0.49079,-0.80754 0.98249,-1.25607 1.07411,-1.24073 -7.40924,-1.24073 l -7.90554,0 -0.29599,-1.92312 c -0.16278,-1.05772 -0.39894,-2.53728 -0.52477,-3.28791 -0.12583,-0.75064 -0.35031,-2.20229 -0.49882,-3.22589 -0.14852,-1.0236 -0.37046,-2.47524 -0.49324,-3.22588 -0.21124,-1.29171 -0.36242,-2.27971 -0.99688,-6.51486 -0.14813,-0.98889 -0.367,-2.41214 -0.48638,-3.16278 -0.11939,-0.75064 -0.34272,-2.20228 -0.49628,-3.22588 -0.15358,-1.0236 -0.37691,-2.47524 -0.4963,-3.22588 -0.11937,-0.75064 -0.3427,-2.20229 -0.49629,-3.22588 -0.15357,-1.0236 -0.37817,-2.47525 -0.49909,-3.22588 -0.12092,-0.75064 -0.34298,-2.25812 -0.49348,-3.34996 -0.1505,-1.09184 -0.3752,-2.59931 -0.49937,-3.34995 -0.12414,-0.75064 -0.34175,-2.11853 -0.48354,-3.03977 -0.14181,-0.92124 -0.36559,-2.37289 -0.4973,-3.22588 -0.13172,-0.853 -0.36192,-2.3884 -0.51156,-3.41199 -0.14965,-1.0236 -0.3725,-2.47525 -0.4953,-3.22588 -0.21124,-1.29172 -0.36241,-2.2797 -0.99686,-6.51487 -0.14815,-0.98887 -0.36701,-2.41213 -0.4864,-3.16277 -0.11937,-0.75064 -0.34271,-2.20229 -0.49628,-3.22588 -0.15358,-1.0236 -0.37691,-2.47525 -0.49629,-3.22588 -0.11939,-0.75064 -0.34271,-2.20228 -0.49629,-3.22588 -0.15358,-1.0236 -0.37818,-2.47525 -0.49909,-3.22589 -0.12092,-0.75063 -0.34299,-2.25811 -0.49349,-3.34995 -0.1505,-1.09184 -0.37658,-2.59932 -0.50242,-3.34995 -0.12583,-0.75064 -0.35031,-2.20228 -0.49882,-3.22588 -0.14851,-1.0236 -0.37184,-2.47525 -0.49629,-3.22588 -0.12444,-0.75064 -0.34777,-2.20229 -0.49629,-3.22589 -0.14851,-1.02359 -0.37045,-2.47523 -0.49323,-3.22588 -0.21125,-1.29171 -0.36242,-2.2797 -0.99687,-6.51486 -0.14815,-0.98888 -0.36701,-2.41214 -0.4864,-3.16277 -0.11938,-0.75064 -0.3427,-2.20229 -0.49629,-3.22589 -0.15357,-1.0236 -0.3769,-2.47524 -0.49628,-3.22588 -0.11939,-0.75063 -0.34272,-2.20228 -0.49629,-3.22588 -0.15359,-1.02359 -0.37817,-2.47525 -0.4991,-3.22588 -0.12092,-0.75064 -0.34298,-2.25812 -0.49349,-3.34996 -0.15049,-1.09183 -0.37657,-2.59931 -0.50241,-3.34995 -0.12583,-0.75063 -0.3503,-2.20228 -0.49882,-3.22588 -0.14851,-1.02359 -0.39232,-2.51367 -0.54178,-3.31129 -0.22349,-1.19277 -0.20978,-1.48941 0.0773,-1.67117 0.44005,-0.2786 35.46836,-0.29535 35.90685,-0.0171 0.18741,0.11891 0.42001,1.09946 0.55833,2.35358 0.13037,1.18238 0.34872,3.09893 0.4852,4.25901 0.13648,1.16008 0.35981,3.05838 0.49629,4.21846 0.13648,1.16008 0.35981,3.05838 0.49629,4.21845 0.13648,1.16008 0.3598,3.05838 0.49628,4.21846 0.13649,1.16008 0.35982,3.05839 0.49629,4.21846 0.13648,1.16008 0.35982,3.05839 0.4963,4.21847 0.13648,1.16007 0.35981,3.05838 0.49629,4.21846 0.13648,1.16007 0.35981,3.05837 0.49628,4.21845 0.13648,1.16008 0.35981,3.05838 0.4963,4.21846 0.13647,1.16007 0.3598,3.05838 0.49628,4.21846 0.13648,1.16008 0.35282,3.03046 0.48074,4.15642 0.12791,1.12596 0.35823,3.10801 0.51184,4.40457 0.1536,1.29656 0.37991,3.2507 0.50289,4.34253 0.12301,1.09184 0.33952,2.93431 0.48115,4.09439 0.14162,1.16008 0.3688,3.05838 0.50483,4.21846 0.13603,1.16008 0.36023,3.05838 0.49822,4.21846 0.13798,1.16008 0.3575,3.05838 0.48783,4.21845 0.13033,1.16008 0.35366,3.05839 0.49629,4.21846 0.14263,1.16008 0.36597,3.05839 0.49629,4.21847 0.13032,1.16007 0.35361,3.05838 0.49621,4.21846 0.14259,1.16008 0.36904,3.11421 0.50324,4.34253 0.1342,1.22831 0.34152,2.56829 0.46071,2.97773 l 0.21668,0.74444 0.14497,-0.86851 c 0.13407,-0.8032 0.30842,-2.51571 0.92205,-9.05728 0.42904,-4.57391 1.46901,-16.77535 1.97751,-23.20153 0.14579,-1.84247 0.36984,-4.6341 0.49788,-6.20361 0.12804,-1.56952 0.35127,-4.41698 0.49609,-6.32769 0.73791,-9.73752 1.50235,-19.30079 1.98844,-24.87651 0.90518,-10.38254 1.29154,-14.48375 2.02054,-21.44806 0.27028,-2.58199 0.35936,-2.91425 0.81406,-3.03636 0.83804,-0.22511 35.22247,-0.15431 35.58144,0.0732 0.33877,0.21474 0.31748,0.64867 -0.20249,4.12536 -0.12248,0.81887 -0.34763,2.38218 -0.50033,3.47402 -0.15271,1.09183 -0.37604,2.65515 -0.49629,3.47402 -0.12025,0.81888 -0.34358,2.38219 -0.49629,3.47403 -0.15271,1.09183 -0.37604,2.65515 -0.49629,3.47402 -0.12025,0.81888 -0.34358,2.38219 -0.49629,3.47403 -0.15271,1.09183 -0.37604,2.65515 -0.49629,3.47402 -0.12025,0.81888 -0.34357,2.38219 -0.49629,3.47403 -0.15271,1.09183 -0.37603,2.65515 -0.49628,3.47403 -0.12025,0.81887 -0.34359,2.38218 -0.4963,3.47402 -0.1527,1.09183 -0.37603,2.65514 -0.49628,3.47403 -0.12026,0.81887 -0.34358,2.38218 -0.49629,3.47402 -0.15271,1.09184 -0.37604,2.65515 -0.49629,3.47403 -0.12025,0.81887 -0.34358,2.38218 -0.4963,3.47402 -0.1527,1.09183 -0.37603,2.65515 -0.49628,3.47402 -0.12026,0.81889 -0.34359,2.3822 -0.49629,3.47403 -0.15271,1.09183 -0.37604,2.65515 -0.49629,3.47402 -0.12025,0.81889 -0.34358,2.38219 -0.49629,3.47403 -0.15271,1.09183 -0.37604,2.65515 -0.49629,3.47403 -0.12025,0.81888 -0.34358,2.38218 -0.49629,3.47402 -0.1527,1.09184 -0.37604,2.65516 -0.49629,3.47403 -0.12025,0.81887 -0.34358,2.38218 -0.49629,3.47402 -0.15271,1.09184 -0.37604,2.65516 -0.49629,3.47403 -0.12024,0.81887 -0.34095,2.38218 -0.49045,3.47402 -0.14952,1.09184 -0.37947,2.7389 -0.51106,3.66014 -0.13156,0.92123 -0.35087,2.45663 -0.48735,3.41199 -0.13648,0.95535 -0.35981,2.51866 -0.49629,3.47402 -0.13648,0.95535 -0.35579,2.49076 -0.48736,3.41199 -0.13159,0.92124 -0.36199,2.5683 -0.51199,3.66014 -0.15003,1.09183 -0.37324,2.65514 -0.496,3.47401 -0.29067,1.93902 -0.65307,4.47498 -0.99287,6.94805 -0.15003,1.09184 -0.37324,2.65516 -0.496,3.47403 -0.20789,1.38677 -0.3367,2.27817 -0.9861,6.82399 -0.13647,0.95535 -0.35716,2.49075 -0.49038,3.41198 -0.13323,0.92124 -0.36475,2.62413 -0.51447,3.78421 -0.14972,1.16007 -0.38019,2.52797 -0.51215,3.03977 -0.22909,0.88853 -0.28711,0.9308 -1.28458,0.9363 -0.82108,0.004 -1.23712,0.17712 -1.94399,0.80646 -0.4946,0.44039 -1.93321,1.63821 -3.19687,2.66181 -1.26368,1.0236 -2.42229,1.97324 -2.57472,2.11035 -0.15241,0.13709 -0.88958,0.75125 -1.63813,1.36479 -0.74853,0.61354 -1.58601,1.30137 -1.86108,1.52847 -0.27505,0.22713 -1.33758,1.10211 -2.36118,1.94444 -1.02359,0.84233 -2.08612,1.71731 -2.36117,1.94444 -0.27506,0.22709 -1.11084,0.91543 -1.85728,1.52958 -0.74645,0.61416 -1.58223,1.30249 -1.8573,1.5296 -0.27504,0.22712 -1.33757,1.1021 -2.36116,1.94443 -1.0236,0.84233 -2.08613,1.7173 -2.36118,1.94444 -0.27507,0.2271 -1.11255,0.91388 -1.86108,1.52618 -0.74856,0.61228 -1.41683,1.1706 -1.48507,1.24073 -0.0683,0.0701 -0.98013,0.82537 -2.02642,1.67837 l -1.90233,1.55091 -10.07065,0 c -7.93656,-5e-5 -10.07064,-0.0664 -10.07064,-0.31289 z M 63.880185,550.33725 c -2.82054,-0.23146 -7.03175,-0.8467 -9.4295,-1.37758 -5.77705,-1.27903 -10.73519,-3.48236 -14.77801,-6.56707 -5.03555,-3.84217 -8.50781,-8.38076 -10.76062,-14.06516 l -0.76471,-1.9296 0,-46.21047 0,-46.21049 0.57741,-1.11665 c 1.67406,-3.23742 2.44505,-4.26833 5.49462,-7.34724 6.39633,-6.45784 15.30385,-10.97606 24.57176,-12.46368 4.153,-0.66661 6.13739,-0.81266 11.04244,-0.81266 8.58997,0 14.26511,0.97031 20.84415,3.56376 5.78551,2.28065 10.229685,5.16491 14.406415,9.3497 5.23805,5.2482 7.69691,10.61684 9.38426,20.48957 0.72688,4.25315 1.27193,11.13355 1.27193,16.05647 l 0,3.42594 -19.169175,-0.0636 -19.16918,-0.0636 -0.15822,-11.16651 c -0.1465,-10.3399 -0.19754,-11.31346 -0.68971,-13.15167 -0.90426,-3.37743 -2.29914,-4.56683 -5.35568,-4.56683 -3.16573,0 -4.50844,1.25824 -5.27059,4.93904 -0.40542,1.95797 -0.43674,4.74297 -0.43674,38.83465 0,39.10204 -0.0285,38.0979 1.18738,41.74316 0.60899,1.82573 1.94389,3.68639 3.15516,4.39788 1.1198,0.65776 4.20138,0.71244 5.3351,0.0947 1.47562,-0.80409 2.40564,-1.9218 2.88089,-3.46233 0.97633,-3.16469 1.00603,-3.59711 1.13507,-16.52178 0.0979,-9.80628 0.19838,-12.76649 0.44025,-12.96722 0.2137,-0.17735 5.98776,-0.23983 18.15238,-0.1964 l 17.839005,0.0637 0.0801,3.34995 c 0.13968,5.84041 -0.48833,17.03791 -1.21075,21.58859 -0.50378,3.1734 -1.64519,6.59978 -3.30824,9.93104 -4.13165,8.27617 -9.98022,14.35758 -17.149695,17.83244 -4.66847,2.26269 -7.58978,3.14998 -13.64796,4.14537 -2.13377,0.35057 -13.83957,0.67303 -16.50162,0.45455 z m 105.833705,0.004 c -3.76868,-0.34427 -6.62817,-0.66977 -7.69249,-0.8756 -0.6824,-0.13199 -1.85488,-0.35661 -2.60552,-0.49919 -10.09949,-1.91818 -17.71638,-6.46782 -22.30599,-13.32356 -2.42307,-3.61946 -3.91814,-6.95629 -5.19243,-11.58903 -1.01117,-3.67598 -1.66168,-9.02437 -2.03412,-16.7241 -0.31405,-6.49238 -0.3149,-44.73433 -0.003,-50.27496 0.49428,-8.72792 1.42199,-14.4335 3.26717,-20.09386 4.08009,-12.51631 15.58065,-21.54263 30.48494,-23.9264 6.94138,-1.1102 16.36432,-1.1132 23.3256,-0.008 3.84093,0.61011 8.53203,1.89569 11.53858,3.16211 1.4243,0.59994 5.51348,2.64604 6.82412,3.41459 2.72185,1.59604 6.35673,4.73482 8.31285,7.17823 0.54591,0.68193 1.06166,1.29569 1.14605,1.36393 0.45423,0.36718 3.23705,4.9057 4.11621,6.71305 2.23166,4.588 3.16545,8.69591 3.79348,16.6881 0.32579,4.14588 0.32762,49.96443 0.003,55.58046 -0.35926,6.20075 -0.77784,9.68337 -1.7224,14.33075 -0.72687,3.57619 -3.46298,9.37328 -6.14545,13.0205 -4.41625,6.00454 -10.81243,10.65871 -17.8158,12.96362 -3.74325,1.23197 -5.11376,1.55494 -10.79428,2.54368 -1.5392,0.2679 -14.42153,0.54513 -16.50163,0.35512 z m 9.35479,-24.19452 c 1.94588,-1.00718 2.56067,-2.72272 2.92864,-8.1724 0.31633,-4.68485 0.3171,-66.77556 0,-72.33417 -0.36044,-6.33605 -0.92345,-8.12232 -2.85478,-9.05725 -1.23428,-0.59752 -3.86483,-0.67173 -5.11873,-0.14443 -1.00568,0.42292 -2.02194,1.48399 -2.39611,2.50177 -0.91772,2.49636 -0.92211,2.69674 -0.92211,42.06053 0,40.0695 0.006,40.33735 1.03062,42.84133 0.36117,0.88295 2.10693,2.4814 2.90657,2.6613 0.87474,0.19681 3.81334,-0.0401 4.42504,-0.35668 z m 160.37615,24.19189 c -8.81251,-0.83322 -15.42661,-2.61807 -21.64549,-5.84107 -3.89381,-2.01805 -5.66879,-3.31994 -8.78817,-6.44581 -4.21617,-4.22499 -7.72221,-10.46617 -9.118,-16.23112 -1.86128,-7.68749 -2.01451,-10.84246 -2.00304,-41.23851 0.0104,-27.6594 0.093,-29.75419 1.46539,-37.1752 0.89927,-4.86284 2.7078,-9.86368 4.84639,-13.40093 2.39598,-3.96297 5.73586,-7.40014 9.9348,-10.22416 1.54928,-1.04198 7.50327,-4.04304 8.02122,-4.04304 0.16266,0 0.48961,-0.10638 0.72662,-0.23643 0.68309,-0.3748 3.22347,-1.15996 5.51784,-1.70537 5.1493,-1.22413 8.35883,-1.55828 14.9196,-1.55331 10.538,0.008 17.87527,1.49149 25.52798,5.1615 4.89296,2.34651 10.91437,7.30575 14.09585,11.60935 1.9224,2.60043 4.45413,7.84824 5.26737,10.91837 1.12623,4.25163 1.49059,5.99487 1.99675,9.55356 0.74272,5.22171 0.96305,10.23465 0.96796,22.0217 l 0.006,12.22001 -26.2413,0.0631 -26.2413,0.0631 0.0246,16.99792 c 0.0283,19.53342 0.16924,21.53456 1.67709,23.81305 0.73922,1.11707 1.74059,1.67517 3.40072,1.8954 4.35613,0.57786 7.15429,-1.52326 7.90899,-5.9388 0.16725,-0.97853 0.36892,-2.00249 0.44815,-2.27546 0.0792,-0.27295 0.20986,-6.24703 0.29028,-13.27574 l 0.14623,-12.77945 19.29325,-0.0636 19.29325,-0.0636 0,8.45778 c 0,15.42772 -0.88887,21.22304 -4.24503,27.67726 -1.86921,3.59462 -4.85466,7.81286 -7.44943,10.52558 -2.20968,2.31008 -6.83964,5.66712 -9.64598,6.99398 -4.01474,1.89819 -7.64938,3.0564 -11.53873,3.67696 -0.95536,0.1524 -2.35117,0.38944 -3.10181,0.52671 -1.34973,0.24681 -13.83994,0.49735 -15.75718,0.31605 z m 10.71327,-98.30874 c -0.16621,-11.54855 -0.39721,-13.19663 -2.06528,-14.73428 -1.10904,-1.02235 -1.66334,-1.20901 -3.59043,-1.20901 -3.04754,0 -4.51584,1.02834 -5.13741,3.5981 -0.55376,2.28923 -1.09881,21.56794 -0.62322,22.0435 0.091,0.091 2.72882,0.16544 5.86185,0.16544 l 5.69643,0 z m 95.49265,98.3106 c -5.94171,-0.54348 -9.97108,-1.32255 -14.26167,-2.75753 -7.97126,-2.66591 -14.67285,-8.01366 -18.63073,-14.86692 -0.67513,-1.16901 -1.2275,-2.16918 -1.2275,-2.22261 0,-0.0534 -0.26708,-0.68671 -0.59351,-1.40727 -1.89617,-4.18556 -3.29551,-10.57511 -4.17256,-19.05246 -0.46048,-4.45104 -0.46087,-56.88911 0,-61.16765 0.68335,-6.34995 1.17601,-8.84616 2.59567,-13.15166 1.25542,-3.80732 3.2067,-6.88776 6.37715,-10.06751 6.57456,-6.59383 15.14667,-10.92695 24.95069,-12.61237 6.48296,-1.11452 15.43959,-1.11576 21.83674,-0.003 5.98877,1.04169 12.90268,3.55363 16.42227,5.96647 0.57051,0.3911 1.10199,0.7111 1.18107,0.7111 0.0791,0 0.97069,0.61151 1.98133,1.35892 9.73663,7.20056 13.24259,14.5484 14.92134,31.27211 0.22157,2.20732 0.55636,12.1099 0.42157,12.46926 -0.0917,0.24445 -4.159,0.31019 -19.1922,0.31019 l -19.07588,0 -0.12174,-0.55833 c -0.0669,-0.30707 -0.16836,-5.47159 -0.22532,-11.47669 -0.0811,-8.55099 -0.18255,-11.21554 -0.46787,-12.28894 -0.92784,-3.49052 -2.36507,-4.70897 -5.55447,-4.70897 -2.60649,0 -4.07087,1.03238 -4.7517,3.34995 -0.74753,2.54453 -0.79923,5.2029 -0.79441,40.86734 0.005,36.97344 0.0146,37.43012 0.8718,40.64819 0.54473,2.04538 1.77762,3.93614 3.17578,4.87041 0.89655,0.59907 1.28267,0.69267 2.89558,0.70205 2.29102,0.0134 3.44301,-0.48031 4.50177,-1.92896 1.89893,-2.59817 2.18905,-5.00041 2.4029,-19.89698 l 0.16746,-11.6628 17.85235,-0.0637 c 11.54672,-0.0412 17.93919,0.023 18.0982,0.18216 0.48303,0.48301 0.0617,15.52341 -0.60839,21.71827 -0.50245,4.64496 -1.15465,7.22962 -2.78267,11.02767 -3.20816,7.48434 -8.1564,13.58406 -14.44493,17.80637 -3.10344,2.08371 -8.05961,4.18265 -12.1591,5.14934 -5.04143,1.18879 -6.97368,1.39383 -14.02016,1.48775 -3.61672,0.0482 -7.0225,0.0468 -7.56842,-0.004 z m 324.32508,-0.006 c -2.91528,-0.21263 -7.91602,-0.88958 -9.92579,-1.34362 -5.39364,-1.21857 -7.34908,-1.85647 -10.79428,-3.5213 -2.4052,-1.16223 -5.11801,-2.81376 -5.91494,-3.60082 -0.18241,-0.18018 -0.71671,-0.62129 -1.18734,-0.98028 -1.99759,-1.52363 -5.2192,-5.9325 -6.99162,-9.56828 -2.26572,-4.64761 -3.23769,-8.59467 -4.32512,-17.56373 -0.45755,-3.77376 -0.4536,-58.20432 0.005,-62.28431 0.65334,-5.81877 1.52498,-10.21203 2.83091,-14.26833 1.55413,-4.8273 4.40452,-9.57657 7.73929,-12.89508 2.23905,-2.22814 3.01538,-2.85739 5.87279,-4.76018 7.83224,-5.21558 15.88587,-7.28401 28.39891,-7.29374 6.44303,-0.005 9.77412,0.31352 15.63311,1.495 4.95113,0.99841 11.39498,3.691 15.63312,6.5324 6.56633,4.40229 11.55282,10.95072 14.31195,18.7949 l 0.82488,2.34517 0,39.20686 c 0,37.33864 -0.0218,39.2778 -0.45577,40.69572 -0.25065,0.81887 -0.54354,1.82386 -0.65086,2.2333 -0.29344,1.11965 -1.70076,4.55032 -2.44301,5.95548 -2.29512,4.34476 -6.33283,9.30815 -9.63484,11.84367 -0.3914,0.30054 -0.76746,0.61984 -0.8357,0.70951 -0.33187,0.43619 -3.61861,2.38333 -5.8314,3.45465 -3.76019,1.82049 -8.44749,3.29759 -12.5313,3.94898 -1.0236,0.16327 -2.47525,0.41241 -3.22589,0.55363 -1.33352,0.2509 -14.04029,0.48991 -16.50161,0.3104 z m 8.93321,-23.95149 c 0.57634,-0.15921 1.36199,-0.66143 1.87347,-1.1976 0.97316,-1.02012 1.31544,-2.15153 1.72885,-5.71511 0.32956,-2.84091 0.32695,-72.16072 -0.003,-75.8147 -0.41482,-4.59561 -0.9257,-5.97592 -2.56802,-6.9384 -0.89131,-0.52234 -1.39166,-0.63002 -2.92778,-0.63002 -1.61354,0 -1.99767,0.0919 -2.97538,0.71196 -0.7624,0.48351 -1.28281,1.0608 -1.6218,1.79905 -1.18526,2.58125 -1.19896,3.0689 -1.19896,42.65133 0,39.54803 0.0146,40.07161 1.19214,42.6368 1.06392,2.31778 3.60924,3.2954 6.50035,2.49669 z M 239.43484,547.938 c -0.0639,-0.1706 -0.14415,-36.96425 -0.17832,-81.76367 l -0.0621,-81.45348 21.21637,0 21.21637,0 -0.0622,81.45348 c -0.0342,44.79942 -0.11443,81.59307 -0.17832,81.76367 -0.0917,0.24477 -4.51554,0.31018 -20.97592,0.31018 -16.46038,0 -20.88422,-0.0654 -20.97591,-0.31018 z m 304.4812,0.0404 c -5.47214,-0.1785 -9.92005,-0.59495 -12.80149,-1.19869 -2.18846,-0.45854 -6.63464,-2.51448 -7.71839,-3.56904 -0.17834,-0.17357 -0.75908,-0.64408 -1.2905,-1.04563 -2.20385,-1.66522 -4.75848,-5.31337 -5.73162,-8.18515 -1.34924,-3.98165 -1.42388,-6.4432 -1.58771,-52.35853 l -0.15136,-42.43273 -4.28316,-0.0679 -4.28314,-0.0679 0.0647,-10.60233 0.0647,-10.60229 4.28049,-0.0679 4.28049,-0.0679 0,-10.41765 0,-10.41767 20.4099,0.0635 20.4099,0.0635 0.0648,10.3552 0.0648,10.35523 5.39444,0.0669 5.39442,0.0669 0.0647,10.60818 0.0648,10.60818 -5.47278,0 -5.47279,0 0.092,41.00592 c 0.0806,35.94273 0.1393,41.19677 0.47542,42.55184 0.514,2.07221 0.91651,2.6143 2.21203,2.979 1.35485,0.38143 5.62331,0.81017 8.06565,0.81017 l 1.83739,0 -0.0647,10.85633 -0.0647,10.85633 -9.18135,0.0243 c -5.04975,0.0134 -11.86132,-0.0631 -15.13683,-0.16998 z m 34.77259,-0.28852 c -0.0823,-0.30699 -0.15115,-30.26675 -0.15301,-66.57713 -0.003,-51.02095 0.0642,-66.08654 0.29437,-66.31667 0.43138,-0.43137 41.15768,-0.43137 41.58905,0 0.23013,0.23013 0.297,15.29572 0.29438,66.31667 -0.003,36.31038 -0.0707,66.27014 -0.15302,66.5772 l -0.14962,0.55834 -20.78626,0 -20.78626,0 -0.14963,-0.55834 z m -0.005,-141.52479 c -0.19671,-0.51256 -0.19671,-20.04284 0,-20.55541 0.13568,-0.35361 2.21186,-0.39252 20.94167,-0.39252 18.72981,0 20.80599,0.0389 20.94167,0.39252 0.1967,0.51257 0.1967,20.04285 0,20.55541 -0.13568,0.35361 -2.21186,0.39251 -20.94167,0.39251 -18.72981,0 -20.80599,-0.0389 -20.94167,-0.39251 z"
           style="fill:#00ff00;fill-opacity:1"
           sodipodi:nodetypes="csccscccssccccsscsscsccsssccsccssssscssscscssssssccccsssscssssscccscscsccscscscscscssccccscccssscccccccccccccccccccccsscsssssccccsssscccccccsscsscsccccccsccsccccssccccccccsssccccccsssssscsssscssccsscssccssccccsscccsccccscccscccsssscscccssssssccssccccccssssscscccsccsssccccccccccsccccccsscsssssscsscscsscsccsccsccssccccsccsssccssssscccscscssccccccscccccscccscscscsccsssscssccssccccccssccsscccscscscscscccccccccsccccsssssssscssscssssssssccsssscssccccsssssssscsscsssssssscccssccsssssssccssccscscscccscscccssscccsssssssscccssssssscsssscssssscccccscscsscsscccscsssscccsccssscccccsssssssscssssssccccscsscscccssssccccsssccscscssssscsssscssscsccssssscccsscscssssscccccccsscssssssscscccscssccccsscsssssccccscccscscccsccsscccccccccccccccccccsscscccscccscscccccccccsccsc" />
      </g>
    </g>
  </g>
</svg>
